<?xml version="1.0" encoding="UTF-8"?>
<svg width="31px" height="38px" viewBox="0 0 161 172" version="1.1" xmlns="http://www.w3.org/2000/svg" xmlns:xlink="http://www.w3.org/1999/xlink">
    <title>Page 1</title>
    <desc>Created with Sketch.</desc>
    <defs>
        <linearGradient x1="50%" y1="0%" x2="50%" y2="100%" id="linearGradient-1">
            <stop stop-color="#3FA7F3" offset="0%"></stop>
            <stop stop-color="#5368BF" offset="100%"></stop>
        </linearGradient>
    </defs>
    <g id="Symbols" stroke="none" stroke-width="1" fill="none" fill-rule="evenodd">
        <g id="C+-/-Logo">
            <g id="Page-1">
                <path d="M52.3484752,6.80762693 C41.934801,11.3478977 32.8679516,17.4929386 25.1440522,25.2483082 C17.4212599,33.0042336 11.2982719,42.1114565 6.77951669,52.5649743 C2.25854724,63.0212714 0,74.1673917 0,86 C0,97.8353876 2.25854724,108.981508 6.77951669,119.43447 C11.2982719,129.891323 17.4212599,138.996322 25.1440522,146.751692 C32.8679516,154.507061 41.934801,160.652102 52.3484752,165.191817 C62.758828,169.729309 73.8578163,172 85.6454401,172 C96.3990035,172 106.696983,170.074498 116.539377,166.226274 C126.377897,162.375827 135.247123,156.832783 143.142074,149.59492 C144.971608,147.871195 146.37379,145.94625 147.346958,143.821194 C148.317912,141.69447 148.86262,139.453796 148.977762,137.099725 C149.090136,134.746211 148.776818,132.446615 148.033379,130.207052 C147.28828,127.965821 146.059918,125.92748 144.343865,124.088692 C142.627258,122.251572 140.709708,120.842465 138.59398,119.865818 C136.475485,118.890838 134.243509,118.343871 131.900266,118.227696 C129.553702,118.115412 127.266369,118.430585 125.034947,119.175995 C122.803524,119.924739 120.770832,121.158194 118.941298,122.881363 C114.364418,127.018078 109.215152,130.207052 103.49516,132.446615 C97.7723995,134.68729 91.8237846,135.806793 85.6454401,135.806793 C78.7795672,135.806793 72.3438146,134.488291 66.3359683,131.843506 C60.329229,129.2015 55.0947136,125.639544 50.6324221,121.158194 C46.1695771,116.676289 42.6212222,111.421181 39.9906789,105.38898 C37.3568143,99.3562227 36.0432033,92.8937853 36.0432033,86 C36.0432033,79.1051029 37.3568143,72.6426655 39.9906789,66.6110203 C42.6212222,60.5788191 46.1695771,55.3220438 50.6324221,50.84125 C55.0947136,46.3610122 60.329229,42.8007239 66.3359683,40.1559383 C72.3438146,37.5144879 78.7795672,36.1920951 85.6454401,36.1920951 C91.8237846,36.1920951 97.7723995,37.3121546 103.49516,39.5533853 C109.215152,41.79406 114.364418,44.9819216 118.941298,49.1186375 C120.770832,50.84125 122.803524,52.0769285 125.034947,52.8240054 C127.266369,53.572194 129.553702,53.8868112 131.900266,53.7706363 C134.243509,53.6583525 136.475485,53.1113855 138.59398,52.1347381 C140.709708,51.1597583 142.627258,49.7512071 144.343865,47.9113079 C146.059918,46.0752997 147.28828,44.034179 148.033379,41.79406 C148.776818,39.5533853 149.090136,37.2560127 148.977762,34.9002747 C148.86262,32.5462043 148.317912,30.3055295 147.346958,28.1782503 C146.37379,26.0537504 144.971608,24.1282487 143.142074,22.4045244 C135.247123,15.1661054 126.377897,9.62417348 116.539377,5.77372588 C106.696983,1.92550173 96.3990035,0 85.6454401,0 C73.8578163,0 62.758828,2.27013541 52.3484752,6.80762693" id="Fill-1" fill="url(#linearGradient-1)"></path>
                <path d="M133.134356,63 C132.073802,63 131.215258,63.8547343 131.215258,64.9093345 L131.215258,77.445623 C131.215258,78.499665 130.357275,79.353841 129.297282,79.353841 L116.918537,79.353841 C115.858544,79.353841 115,80.2085753 115,81.262059 L115,89.6279589 C115,90.6814426 115.858544,91.5361769 116.918537,91.5361769 L129.297282,91.5361769 C130.357275,91.5361769 131.215258,92.3914694 131.215258,93.4443948 L131.215258,106.091224 C131.215258,107.144149 132.073802,108 133.134356,108 L142.645116,108 C143.705109,108 144.563653,107.144149 144.563653,106.091224 L144.563653,93.4443948 C144.563653,92.3914694 145.422197,91.5361769 146.481629,91.5361769 L159.081463,91.5361769 C160.141456,91.5361769 161,90.6814426 161,89.6279589 L161,81.262059 C161,80.2085753 160.141456,79.353841 159.081463,79.353841 L146.481629,79.353841 C145.422197,79.353841 144.563653,78.499665 144.563653,77.445623 L144.563653,64.9093345 C144.563653,63.8547343 143.705109,63 142.645116,63 L133.134356,63 Z" id="Fill-4" fill="#3FA7F3"></path>
            </g>
        </g>
    </g>
</svg>