<?xml version="1.0" encoding="UTF-8"?>
<svg width="39px" height="38px" viewBox="0 0 39 38" version="1.1" xmlns="http://www.w3.org/2000/svg" xmlns:xlink="http://www.w3.org/1999/xlink">
    <!-- Generator: Sketch 47 (45396) - http://www.bohemiancoding.com/sketch -->
    <title>Chart</title>
    <desc>Created with Sketch.</desc>
    <defs></defs>
    <g id="C+---Dashboard" stroke="none" stroke-width="1" fill="none" fill-rule="evenodd">
        <g id="Dashboard---General" transform="translate(-1278.000000, -113.000000)" fill="#AB7DF6">
            <g id="Church-Info" transform="translate(280.000000, 90.000000)">
                <g id="Stat-#2" transform="translate(998.000000, 19.000000)">
                    <path d="M12,11.5005059 C12,10.6717994 12.6657972,10 13.5,10 C14.3284271,10 15,10.6683655 15,11.5005059 L15,42 L12,42 L12,11.5005059 Z M0,5.50134919 C0,4.67217693 0.665797234,4 1.5,4 C2.32842712,4 3,4.67568885 3,5.50134919 L3,42 L0,42 L0,5.50134919 Z M36,24.8293508 C36,24.0031232 36.6657972,23.3333333 37.5,23.3333333 C38.3284271,23.3333333 39,23.9976899 39,24.8293508 L39,42 L36,42 L36,24.8293508 Z M24,11.5005059 C24,10.6717994 24.6657972,10 25.5,10 C26.3284271,10 27,10.6683655 27,11.5005059 L27,42 L24,42 L24,11.5005059 Z M6,16.4900965 C6,15.6671389 6.66579723,15 7.5,15 C8.32842712,15 9,15.6674194 9,16.4900965 L9,42 L6,42 L6,16.4900965 Z M30,34.1662281 C30,33.3380432 30.6657972,32.6666667 31.5,32.6666667 C32.3284271,32.6666667 33,33.337897 33,34.1662281 L33,42 L30,42 L30,34.1662281 Z M18,21.4948532 C18,20.6692686 18.6657972,20 19.5,20 C20.3284271,20 21,20.6704287 21,21.4948532 L21,42 L18,42 L18,21.4948532 Z" id="Chart"></path>
                </g>
            </g>
        </g>
    </g>
</svg>