<?xml version="1.0" encoding="UTF-8"?>
<svg width="39px" height="44px" viewBox="0 0 39 44" version="1.1" xmlns="http://www.w3.org/2000/svg" xmlns:xlink="http://www.w3.org/1999/xlink">
    <!-- Generator: Sketch 47 (45396) - http://www.bohemiancoding.com/sketch -->
    <title>Chart</title>
    <desc>Created with Sketch.</desc>
    <defs></defs>
    <g id="C+---Dashboard" stroke="none" stroke-width="1" fill="none" fill-rule="evenodd">
        <g id="Dashboard---General" transform="translate(-1106.000000, -107.000000)" fill="#FACA00">
            <g id="Church-Info" transform="translate(280.000000, 90.000000)">
                <g id="Stat-#1" transform="translate(826.000000, 17.000000)">
                    <path d="M12,13.5005059 C12,12.6717994 12.6657972,12 13.5,12 C14.3284271,12 15,12.6683655 15,13.5005059 L15,44 L12,44 L12,13.5005059 Z M0,13.5005059 C0,12.6717994 0.665797234,12 1.5,12 C2.32842712,12 3,12.6683655 3,13.5005059 L3,44 L0,44 L0,13.5005059 Z M36,26.8293508 C36,26.0031232 36.6657972,25.3333333 37.5,25.3333333 C38.3284271,25.3333333 39,25.9976899 39,26.8293508 L39,44 L36,44 L36,26.8293508 Z M24,1.50185084 C24,0.672401522 24.6657972,0 25.5,0 C26.3284271,0 27,0.673527829 27,1.50185084 L27,44 L24,44 L24,1.50185084 Z M6,5.49504371 C6,4.66935387 6.66579723,4 7.5,4 C8.32842712,4 9,4.6774915 9,5.49504371 L9,44 L6,44 L6,5.49504371 Z M30,18.8241896 C30,18.0008124 30.6657972,17.3333333 31.5,17.3333333 C32.3284271,17.3333333 33,18.0058501 33,18.8241896 L33,44 L30,44 L30,18.8241896 Z M18,26.8293508 C18,26.0031232 18.6657972,25.3333333 19.5,25.3333333 C20.3284271,25.3333333 21,25.9976899 21,26.8293508 L21,44 L18,44 L18,26.8293508 Z" id="Chart"></path>
                </g>
            </g>
        </g>
    </g>
</svg>